<?xml version="1.0" encoding="utf-8"?>
<!-- Generator: Adobe Illustrator 14.0.0, SVG Export Plug-In . SVG Version: 6.00 Build 43363)  -->
<!DOCTYPE svg PUBLIC "-//W3C//DTD SVG 1.1//EN" "http://www.w3.org/Graphics/SVG/1.1/DTD/svg11.dtd">
<svg version="1.1" id="signwhite_1_" xmlns="http://www.w3.org/2000/svg" xmlns:xlink="http://www.w3.org/1999/xlink" x="0px"
	 y="0px" width="108.24px" height="76.32px" viewBox="0 0 108.24 76.32" enable-background="new 0 0 108.24 76.32"
	 xml:space="preserve">
<g id="Rectangle_1">
	<g>
		<rect x="5.52" y="14.028" fill="#FFFFFF" width="97.122" height="1.918"/>
	</g>
</g>
<g id="Rectangle_1_copy_2">
	<g>
		<rect x="5.52" y="12.59" fill="#FFFFFF" width="97.122" height="0.719"/>
	</g>
</g>
<g id="Rectangle_1_copy">
	<g>
		<rect x="5.52" y="47.825" fill="#FFFFFF" width="97.122" height="1.918"/>
	</g>
</g>
<g id="Shape_85">
	<g>
		<path fill="#FFFFFF" d="M74.222,11.432c-7.201-4.733-14.251-5.793-20.018-5.793s-12.816,1.06-20.018,5.793
			c-0.274,0.18-0.058,0.263,0.329,0.142c8.829-2.768,15.549-3.259,19.689-3.259s10.86,0.491,19.688,3.259
			C74.28,11.695,74.496,11.612,74.222,11.432z"/>
	</g>
</g>
<g id="Shape_85_copy">
	<g>
		<path fill="#FFFFFF" d="M73.893,66.066c-8.83,1.33-15.552,1.566-19.692,1.566s-10.862-0.236-19.692-1.566
			c-0.387-0.059-0.604-0.019-0.329,0.068c7.203,2.274,14.254,2.784,20.021,2.784s12.819-0.51,20.021-2.784
			C74.496,66.048,74.28,66.008,73.893,66.066z"/>
	</g>
</g>
<g id="jared_cobb">
	<g>
		<path fill-rule="evenodd" clip-rule="evenodd" fill="#FFFFFF" d="M8.593,20.567H6.396v16.164c0,1.26-0.684,2.448-1.945,2.448
			H4.127c-0.036-0.216-0.036-0.433-0.036-0.648v-1.8L2.398,35.04v-0.216H0.129v1.908c0,1.656,0.756,3.132,2.017,3.924l1.153,1.116
			c0.72,0.72,1.765,1.188,2.953,1.188c2.737,0,4.034-2.159,4.034-4.428V22.475l-1.693-1.692V20.567z M8.413,36.731
			c0,2.232-1.261,4.356-3.962,4.356c-2.521,0-4.142-1.98-4.142-4.356v-1.728h1.909v1.728c0,1.332,0.756,2.628,2.233,2.628
			c1.369,0,2.125-1.26,2.125-2.628V20.748h1.837V36.731z M16.949,20.819l-0.036-0.252H14.5l-3.098,20.484h0.216l1.693,1.691h2.017
			c0.252-1.728,0.576-3.527,0.828-5.256h1.117l0.54,3.564h0.216l1.693,1.691h2.017l-3.133-20.268L16.949,20.819z M17.993,40.872
			l-0.792-5.292v0.036h-2.917l-0.828,5.256h-1.873l3.098-20.125h2.053l3.134,20.125H17.993z M15.724,24.563l-0.829,6.48
			l-0.468,2.988h2.521l-0.432-2.988L15.724,24.563z M31.644,36.335c0.972-0.756,1.188-1.908,1.188-3.024v-6.588
			c0-1.44-0.468-2.448-1.153-3.132l-1.152-1.152c-0.792-1.332-2.269-1.872-3.565-1.872h-3.998v20.484h0.216l1.693,1.691h2.089
			v-5.147h2.053v3.456h0.216l1.692,1.691h2.053v-3.744c0-0.828-0.252-1.583-0.792-2.124L31.644,36.335z M31.103,40.872h-1.909
			v-3.673c0-0.864-0.541-1.476-1.513-1.476h-2.593v5.148h-1.945V20.748h3.818c1.873,0,3.998,1.116,3.998,4.176v6.588
			c0,1.152-0.288,2.376-1.369,3.096c1.044,0.54,1.513,1.476,1.513,2.592V40.872z M26.961,22.439h-1.873v11.592h1.873
			c0.936,0,2.161-0.9,2.161-2.52v-6.588C29.122,23.375,28.258,22.439,26.961,22.439z M28.942,24.923v6.588
			c0,1.512-1.117,2.34-1.981,2.34v-9.54h1.909C28.906,24.527,28.942,24.708,28.942,24.923z M42.34,20.567h-7.636v20.484h0.216
			l1.693,1.691h7.419v-1.871L42.34,39.18v-0.216h-3.674v-1.477h4.286v-1.836l-1.693-1.692v-0.216h-2.593v-9.468h5.367v-1.8
			l-1.693-1.692V20.567z M42.16,22.403h-5.366v11.521h4.286v1.692h-4.286v3.528h5.366v1.729h-7.275V20.748h7.275V22.403z
			 M53.289,22.368c-0.792-1.476-2.341-1.8-3.818-1.8h-4.07v20.484h0.216l1.693,1.691h3.962c0.972,0,4.25-0.144,4.25-4.176v-11.88
			c0-1.548-0.433-2.52-1.045-3.168L53.289,22.368z M53.649,36.768c0,3.96-3.206,4.104-4.178,4.104h-3.89V20.748h3.89
			c2.053,0,4.178,0.612,4.178,4.14V36.768z M49.471,22.439H47.49v16.668h1.981c1.081,0,2.341-0.432,2.341-2.34v-11.88
			C51.74,22.728,50.768,22.439,49.471,22.439z M51.632,24.888v11.88c0,1.764-1.152,2.16-2.161,2.16h-0.108V24.312h2.197
			C51.596,24.491,51.632,24.671,51.632,24.888z M71.369,34.715h-2.232v2.016c0,1.62-0.576,2.412-1.945,2.412h-0.36v-12.42
			c0-1.728,0.937-2.592,2.161-2.592h0.108c0.036,0.252,0.072,0.504,0.072,0.792v2.16h0.216l1.692,1.692h1.945v-2.052
			c0-1.44-0.433-2.592-1.188-3.348l-1.188-1.188c-0.721-1.152-1.945-1.8-3.494-1.8c-2.593,0-4.286,1.835-4.286,4.536v11.772
			c0,1.8,0.685,3.204,1.945,3.96l1.188,1.188c0.721,0.72,1.729,1.115,2.989,1.115c2.773,0,4.07-2.052,4.07-4.428v-1.908
			l-1.693-1.692V34.715z M71.189,36.731c0,2.34-1.261,4.356-3.998,4.356c-2.593,0-4.142-1.765-4.142-4.393V24.923
			c0-2.592,1.621-4.356,4.105-4.356c2.449,0,3.998,1.62,3.998,4.356v1.98h-1.801v-1.98c0-1.584-0.721-2.664-2.161-2.664
			c-1.261,0-2.233,0.9-2.233,2.664v11.772c0,1.548,0.757,2.628,2.233,2.628s2.125-0.864,2.125-2.592v-1.836h1.873V36.731z
			 M82.354,22.295c-0.72-1.116-1.908-1.908-3.493-1.908c-2.81,0-4.286,2.124-4.286,4.464v11.916c0,1.692,0.72,3.168,2.053,3.924
			l1.116,1.116c0.721,0.72,1.693,1.151,2.918,1.151c2.701,0,4.069-2.159,4.069-4.428v-11.88c0-1.26-0.468-2.448-1.261-3.24
			L82.354,22.295z M82.859,36.731c0,2.232-1.333,4.356-3.998,4.356c-2.558,0-4.106-1.944-4.106-4.32V24.852
			c0-2.232,1.404-4.284,4.106-4.284c2.484,0,3.998,1.98,3.998,4.284V36.731z M78.861,22.259c-1.478,0-2.197,1.152-2.197,2.592
			v11.916c0,1.368,0.72,2.556,2.197,2.556c1.477,0,2.125-1.152,2.125-2.592v-11.88C80.986,23.555,80.374,22.259,78.861,22.259z
			 M80.733,24.131c0.036,0.252,0.072,0.504,0.072,0.72v11.88c0,1.332-0.576,2.412-1.944,2.412h-0.324V26.651
			c0-1.404,0.685-2.52,2.125-2.52H80.733z M90.494,22.475h-1.801v10.548h1.873c0.937,0,2.197-0.936,2.197-2.556v-5.616
			C92.764,23.231,91.899,22.475,90.494,22.475z M92.583,24.852v5.616c0,1.512-1.152,2.376-2.017,2.376v-8.496h1.98
			C92.547,24.527,92.583,24.671,92.583,24.852z M94.168,22.403c-0.72-1.26-2.053-1.836-3.674-1.836h-3.89v20.484h0.216l1.693,1.691
			h4.79c1.513,0,3.134-0.972,3.134-3.312v-1.44c0-0.792-0.217-1.583-0.793-2.124l-0.612-0.612c1.081-0.72,1.405-1.98,1.405-2.952
			l0.035-5.652c0-1.368-0.396-2.376-1.08-3.06L94.168,22.403z M94.564,30.503c0,1.044-0.433,2.412-1.729,3.06
			c1.225,0.432,1.729,1.548,1.729,2.628v1.44c0,2.304-1.585,3.241-3.062,3.241h-4.719V20.748h3.71c2.341,0,4.106,1.26,4.106,4.104
			L94.564,30.503z M91.106,34.536h-2.413v4.608h2.81c1.08,0,1.261-1.044,1.261-1.512v-1.44
			C92.764,35.255,92.007,34.536,91.106,34.536z M92.583,37.631c0,0.396-0.18,1.333-1.08,1.333h-0.937v-2.556h2.017V37.631z
			 M102.848,34.536h-2.413v4.608h2.81c1.08,0,1.261-1.044,1.261-1.512v-1.44C104.505,35.255,103.748,34.536,102.848,34.536z
			 M104.324,37.631c0,0.396-0.18,1.333-1.08,1.333h-0.937v-2.556h2.017V37.631z M108.179,32.304l0.035-5.652
			c0-1.368-0.396-2.376-1.08-3.06l-1.225-1.188c-0.721-1.26-2.053-1.836-3.674-1.836h-3.89v20.484h0.216l1.693,1.691h4.79
			c1.513,0,3.134-0.972,3.134-3.312v-1.44c0-0.792-0.217-1.583-0.793-2.124l-0.612-0.612
			C107.854,34.536,108.179,33.275,108.179,32.304z M106.306,30.503c0,1.044-0.433,2.412-1.729,3.06
			c1.225,0.432,1.729,1.548,1.729,2.628v1.44c0,2.304-1.585,3.241-3.062,3.241h-4.719V20.748h3.71c2.341,0,4.106,1.26,4.106,4.104
			L106.306,30.503z M102.235,22.475h-1.801v10.548h1.873c0.937,0,2.197-0.936,2.197-2.556v-5.616
			C104.505,23.231,103.64,22.475,102.235,22.475z M104.324,24.852v5.616c0,1.512-1.152,2.376-2.017,2.376v-8.496h1.98
			C104.288,24.527,104.324,24.671,104.324,24.852z"/>
	</g>
</g>
<g id="Fresh_Code">
	<g>
		<path fill-rule="evenodd" clip-rule="evenodd" fill="#FFFFFF" d="M19.069,58.852c0.256,0.213,0.488,0.274,0.696,0.184
			c0.208-0.091,0.378-0.234,0.511-0.432s0.221-0.394,0.264-0.591c0.042-0.197,0.026-0.296-0.048-0.296
			c-0.32-0.011-0.565-0.125-0.735-0.344c-0.171-0.218-0.256-0.484-0.256-0.799s0.082-0.649,0.248-1.007
			c0.165-0.356,0.421-0.685,0.768-0.982c0.346-0.299,0.783-0.541,1.311-0.728c0.528-0.186,1.154-0.264,1.879-0.231
			c0.554,0.021,1.103,0.114,1.646,0.279c0.543,0.166,1.111,0.302,1.703,0.408c0.592,0.106,1.218,0.133,1.878,0.079
			c0.661-0.053,1.386-0.281,2.174-0.687c0.234-0.128,0.4-0.24,0.496-0.336s0.136-0.17,0.12-0.224c-0.016-0.053-0.08-0.08-0.192-0.08
			s-0.253,0.038-0.424,0.112c-0.352,0.149-0.671,0.239-0.959,0.271c-0.288,0.032-0.568,0.032-0.839,0
			c-0.272-0.032-0.541-0.085-0.808-0.16c-0.267-0.074-0.551-0.153-0.855-0.239c-0.304-0.085-0.643-0.162-1.016-0.231
			s-0.794-0.109-1.263-0.12c-1.119-0.032-2.079,0.074-2.878,0.319s-1.463,0.57-1.99,0.975c-0.528,0.405-0.936,0.855-1.223,1.351
			s-0.479,0.978-0.575,1.446c-0.096,0.469-0.107,0.89-0.032,1.263C18.744,58.426,18.878,58.691,19.069,58.852z M24.961,54.465
			c-0.069-0.069-0.173-0.106-0.312-0.111c-0.139-0.006-0.304,0.016-0.496,0.063c-0.191,0.048-0.381,0.117-0.567,0.208
			s-0.36,0.197-0.52,0.319c-0.16,0.123-0.277,0.259-0.352,0.407l-2.558,4.746c-0.426,0.064-0.813,0.125-1.159,0.184
			s-0.594,0.104-0.743,0.136c-0.096,0.021-0.166,0.054-0.208,0.097c-0.042,0.042-0.064,0.088-0.064,0.136s0.024,0.088,0.072,0.119
			c0.048,0.032,0.115,0.043,0.2,0.032l1.63-0.191c-0.224,0.415-0.439,0.817-0.647,1.206c-0.208,0.39-0.389,0.735-0.543,1.039
			c-0.155,0.304-0.282,0.562-0.384,0.774c-0.101,0.213-0.157,0.352-0.167,0.416c-0.032,0.138-0.03,0.269,0.008,0.392
			c0.037,0.122,0.096,0.21,0.176,0.264c0.08,0.053,0.17,0.061,0.272,0.023c0.101-0.037,0.2-0.141,0.295-0.312
			c0.042-0.074,0.141-0.234,0.296-0.479c0.154-0.245,0.346-0.546,0.576-0.902c0.229-0.357,0.485-0.757,0.767-1.198
			c0.283-0.442,0.578-0.903,0.888-1.383c0.341-0.032,0.647-0.056,0.919-0.071c0.272-0.017,0.482-0.014,0.632,0.008
			c0.117,0.011,0.237-0.017,0.359-0.08c0.123-0.064,0.218-0.142,0.288-0.231c0.069-0.091,0.104-0.174,0.104-0.248
			s-0.064-0.117-0.191-0.128c-0.149,0-0.379,0.014-0.688,0.04c-0.31,0.026-0.661,0.066-1.055,0.12
			c0.362-0.575,0.725-1.146,1.087-1.71s0.69-1.079,0.983-1.542c0.293-0.464,0.538-0.86,0.735-1.19s0.322-0.549,0.375-0.655
			C25.033,54.633,25.03,54.534,24.961,54.465z M40.812,59.858c-0.192-0.288-0.453-0.554-0.784-0.799
			c0.106-0.097,0.179-0.187,0.216-0.272c0.037-0.085,0.04-0.148,0.008-0.191c-0.032-0.043-0.096-0.059-0.192-0.048
			s-0.219,0.063-0.368,0.16c-0.288,0.191-0.658,0.441-1.111,0.751c-0.453,0.309-0.909,0.612-1.367,0.91
			c-0.234,0.16-0.514,0.347-0.839,0.56s-0.671,0.418-1.039,0.615s-0.741,0.373-1.119,0.527s-0.733,0.247-1.063,0.279
			c-0.362,0.043-0.664-0.008-0.903-0.151c-0.24-0.145-0.408-0.333-0.503-0.567c0.362-0.117,0.775-0.274,1.239-0.472
			c0.464-0.196,0.879-0.415,1.247-0.655c0.368-0.239,0.647-0.481,0.839-0.727s0.202-0.474,0.032-0.688
			c-0.213-0.256-0.501-0.386-0.863-0.392c-0.362-0.005-0.751,0.069-1.167,0.224c-0.416,0.155-0.823,0.373-1.223,0.655
			c-0.335,0.237-0.617,0.497-0.866,0.771c-0.015,0.01-0.021,0.01-0.037,0.021c-0.491,0.32-0.919,0.584-1.287,0.791
			c-0.368,0.208-0.701,0.365-0.999,0.472c-0.299,0.106-0.57,0.16-0.815,0.16c-0.246,0-0.49-0.059-0.735-0.176
			c-0.16-0.075-0.227-0.185-0.2-0.328c0.027-0.144,0.104-0.306,0.232-0.487c0.128-0.181,0.277-0.364,0.448-0.551
			c0.17-0.187,0.314-0.357,0.432-0.512s0.184-0.282,0.2-0.384c0.016-0.101-0.066-0.151-0.248-0.151
			c-0.352,0-0.589-0.035-0.711-0.104c-0.123-0.068-0.173-0.156-0.152-0.264c0.021-0.106,0.082-0.224,0.184-0.352
			c0.101-0.127,0.2-0.244,0.296-0.352c0.096-0.105,0.162-0.193,0.2-0.264c0.037-0.068-0.002-0.104-0.12-0.104
			c-0.096,0-0.243,0.054-0.44,0.16s-0.399,0.242-0.607,0.407s-0.402,0.347-0.583,0.543c-0.182,0.197-0.304,0.387-0.368,0.567
			c-0.064,0.16-0.054,0.299,0.032,0.416c-0.085,0.074-0.192,0.165-0.319,0.271c-0.128,0.106-0.283,0.229-0.464,0.367
			c-0.085,0.064-0.146,0.128-0.184,0.192c-0.037,0.063-0.048,0.111-0.032,0.144s0.059,0.043,0.128,0.032s0.168-0.059,0.296-0.145
			c0.128-0.085,0.264-0.186,0.408-0.304c0.144-0.117,0.274-0.229,0.392-0.335c0.085,0.053,0.178,0.099,0.28,0.136
			c0.101,0.037,0.194,0.066,0.28,0.088c0.106,0.032,0.208,0.059,0.304,0.08c-0.363,0.362-0.661,0.703-0.896,1.022
			c-0.096,0.139-0.184,0.277-0.264,0.415c-0.08,0.139-0.139,0.274-0.176,0.407c-0.038,0.134-0.043,0.256-0.016,0.368
			c0.026,0.112,0.093,0.205,0.2,0.279c0.203,0.139,0.458,0.197,0.768,0.176s0.642-0.093,0.999-0.216
			c0.357-0.122,0.722-0.284,1.095-0.487c0.373-0.202,0.733-0.409,1.079-0.623c0.314-0.193,0.592-0.384,0.85-0.573
			c-0.056,0.119-0.114,0.238-0.146,0.357c-0.091,0.336-0.035,0.637,0.167,0.903c0.267,0.352,0.656,0.562,1.167,0.631
			c0.511,0.069,1.092,0.019,1.743-0.151c0.65-0.171,1.334-0.458,2.054-0.863c0.624-0.351,1.226-0.788,1.814-1.283
			c0.018-0.011,0.029-0.016,0.048-0.027c0.149-0.096,0.317-0.199,0.503-0.312c0.187-0.111,0.354-0.216,0.504-0.312
			c0.181-0.117,0.362-0.234,0.543-0.352c0.341,0.352,0.624,0.688,0.847,1.007c0.192,0.277,0.341,0.552,0.448,0.823
			c0.106,0.271,0.085,0.477-0.064,0.615c-0.16,0.139-0.312,0.168-0.456,0.088s-0.27-0.202-0.376-0.368
			c-0.106-0.165-0.184-0.335-0.231-0.511s-0.051-0.296-0.008-0.359c0.042-0.054,0-0.091-0.128-0.112s-0.28-0.003-0.456,0.056
			s-0.354,0.16-0.536,0.304s-0.304,0.354-0.368,0.632c-0.042,0.181-0.011,0.354,0.096,0.519c0.106,0.166,0.258,0.301,0.456,0.407
			s0.426,0.176,0.688,0.208s0.527,0.014,0.799-0.056c0.271-0.069,0.533-0.197,0.783-0.384c0.25-0.186,0.466-0.449,0.647-0.791
			c0.203-0.383,0.269-0.745,0.2-1.086S40.982,60.104,40.812,59.858z M31.899,60.441c0.165-0.293,0.45-0.557,0.855-0.791
			c0.384-0.213,0.661-0.301,0.832-0.264s0.261,0.133,0.272,0.288c0.01,0.154-0.056,0.335-0.2,0.543
			c-0.144,0.208-0.333,0.365-0.567,0.472c-0.586,0.276-1.055,0.479-1.407,0.606C31.662,61.02,31.734,60.734,31.899,60.441z
			 M51.523,60.793c-0.245,0.154-0.517,0.304-0.815,0.447s-0.615,0.264-0.951,0.359c-0.335,0.096-0.674,0.145-1.015,0.145
			c-0.277,0-0.482-0.051-0.615-0.152c-0.133-0.101-0.222-0.231-0.264-0.392c-0.043-0.159-0.059-0.327-0.048-0.503
			s0.016-0.344,0.016-0.504c0-0.159-0.019-0.29-0.056-0.392c-0.038-0.101-0.131-0.151-0.28-0.151c-0.352,0-0.725,0.094-1.119,0.279
			c-0.394,0.187-0.765,0.39-1.111,0.607c-0.347,0.219-0.653,0.421-0.919,0.607s-0.453,0.279-0.56,0.279
			c-0.042,0-0.051-0.045-0.024-0.136c0.026-0.09,0.077-0.216,0.152-0.375c0.075-0.16,0.17-0.344,0.288-0.552
			c0.117-0.208,0.245-0.434,0.383-0.679c0.917-0.746,1.711-1.491,2.382-2.237s1.186-1.417,1.543-2.014
			c0.357-0.597,0.538-1.081,0.543-1.454c0.005-0.373-0.2-0.56-0.616-0.56c-0.309,0-0.647,0.149-1.015,0.447
			c-0.368,0.299-0.749,0.69-1.143,1.175c-0.395,0.485-0.792,1.031-1.191,1.638c-0.4,0.607-0.781,1.221-1.143,1.838
			c-0.277,0.458-0.541,0.933-0.792,1.423c-0.25,0.489-0.456,0.939-0.615,1.35c-0.16,0.41-0.267,0.746-0.32,1.007
			s-0.016,0.392,0.112,0.392c0.213,0,0.49-0.099,0.831-0.296c0.341-0.196,0.693-0.418,1.055-0.663s0.706-0.477,1.031-0.695
			c0.325-0.218,0.583-0.349,0.775-0.391c-0.064,0.372-0.042,0.697,0.064,0.975c0.085,0.245,0.25,0.466,0.496,0.663
			s0.634,0.295,1.167,0.295c0.458,0,0.933-0.08,1.423-0.239c0.49-0.16,0.957-0.352,1.399-0.575s0.829-0.45,1.159-0.679
			c0.33-0.229,0.565-0.413,0.704-0.552c0.181-0.181,0.242-0.304,0.184-0.367c-0.059-0.064-0.216,0.005-0.472,0.207
			C51.976,60.497,51.768,60.639,51.523,60.793z M45.488,58.141c0.197-0.314,0.413-0.652,0.647-1.015s0.48-0.725,0.736-1.087
			c0.255-0.362,0.496-0.688,0.719-0.975c0.224-0.288,0.421-0.517,0.591-0.688c0.17-0.17,0.282-0.245,0.336-0.224
			c0.085,0.043,0.106,0.149,0.064,0.319c-0.043,0.171-0.139,0.381-0.288,0.632c-0.149,0.25-0.341,0.532-0.575,0.847
			c-0.235,0.314-0.496,0.642-0.784,0.982c-0.288,0.341-0.594,0.68-0.919,1.015c-0.325,0.336-0.653,0.653-0.983,0.951
			C45.139,58.708,45.291,58.455,45.488,58.141z M90.163,60.17c-0.074-0.048-0.239,0.019-0.495,0.199
			c-0.234,0.16-0.515,0.347-0.839,0.56c-0.326,0.213-0.672,0.418-1.04,0.615c-0.367,0.197-0.74,0.373-1.119,0.527
			c-0.378,0.154-0.732,0.247-1.062,0.279c-0.362,0.043-0.664-0.008-0.903-0.151c-0.24-0.145-0.408-0.333-0.504-0.567
			c0.362-0.117,0.775-0.274,1.239-0.472c0.464-0.196,0.879-0.415,1.247-0.655c0.367-0.239,0.647-0.481,0.839-0.727
			c0.192-0.245,0.203-0.474,0.032-0.688c-0.213-0.256-0.501-0.386-0.863-0.392c-0.362-0.005-0.752,0.069-1.167,0.224
			c-0.416,0.155-0.823,0.373-1.223,0.655c-0.343,0.242-0.631,0.508-0.884,0.788c-0.168,0.121-0.346,0.247-0.556,0.395
			c-0.25,0.176-0.512,0.341-0.783,0.495c-0.271,0.155-0.557,0.277-0.855,0.368s-0.592,0.125-0.879,0.104
			c-0.171-0.011-0.285-0.09-0.344-0.239s-0.072-0.347-0.04-0.592s0.099-0.527,0.2-0.847c0.101-0.319,0.231-0.655,0.392-1.007
			c0.298-0.309,0.629-0.66,0.991-1.055c0.362-0.394,0.716-0.796,1.062-1.206s0.664-0.81,0.951-1.198
			c0.288-0.39,0.501-0.735,0.64-1.039s0.187-0.549,0.144-0.735c-0.042-0.187-0.224-0.279-0.543-0.279
			c-0.224,0-0.512,0.093-0.863,0.279s-0.741,0.525-1.167,1.015c-0.277,0.32-0.56,0.692-0.848,1.119
			c-0.288,0.426-0.564,0.873-0.831,1.342s-0.509,0.945-0.728,1.431c-0.219,0.484-0.392,0.945-0.52,1.382
			c-0.277,0.267-0.575,0.53-0.896,0.791c-0.319,0.262-0.632,0.485-0.936,0.671c-0.304,0.187-0.586,0.322-0.847,0.407
			c-0.262,0.086-0.478,0.086-0.647,0c-0.202-0.105-0.288-0.273-0.256-0.503c0.032-0.229,0.141-0.461,0.327-0.695
			c0.187-0.233,0.438-0.431,0.752-0.591s0.647-0.224,0.999-0.191c0.267,0.031,0.496,0.002,0.688-0.088
			c0.191-0.091,0.352-0.2,0.479-0.328c0.149-0.139,0.277-0.309,0.384-0.511c-0.395-0.182-0.823-0.208-1.287-0.08
			s-0.911,0.341-1.343,0.639c-0.302,0.209-0.58,0.452-0.847,0.713c-0.017,0.011-0.023,0.011-0.04,0.022
			c-0.16,0.117-0.314,0.216-0.464,0.296s-0.307,0.128-0.472,0.144s-0.35-0.005-0.552-0.063s-0.442-0.168-0.72-0.328
			c-0.128-0.074-0.269-0.136-0.423-0.184c-0.155-0.048-0.291-0.054-0.408-0.016c-0.117,0.037-0.208,0.127-0.271,0.271
			c-0.064,0.144-0.069,0.364-0.017,0.663c-0.031,0.117-0.093,0.239-0.184,0.367s-0.194,0.245-0.312,0.352s-0.248,0.194-0.392,0.264
			s-0.296,0.104-0.456,0.104c-0.373,0-0.631-0.082-0.775-0.247c-0.144-0.165-0.218-0.352-0.224-0.56
			c-0.005-0.208,0.029-0.413,0.104-0.615c0.074-0.202,0.154-0.346,0.239-0.432c0.106-0.106,0.205-0.176,0.296-0.207
			c0.091-0.032,0.176-0.04,0.256-0.024s0.157,0.048,0.231,0.096c0.075,0.048,0.149,0.094,0.225,0.136
			c0.127,0.086,0.269,0.091,0.423,0.017c0.154-0.075,0.288-0.179,0.4-0.312c0.111-0.134,0.181-0.272,0.207-0.416
			c0.027-0.144-0.023-0.253-0.151-0.327c-0.16-0.096-0.357-0.128-0.592-0.096c-0.234,0.031-0.475,0.104-0.72,0.215
			c-0.245,0.112-0.481,0.251-0.711,0.416c-0.217,0.156-0.395,0.325-0.54,0.506c-0.109,0.079-0.26,0.191-0.475,0.357
			c-0.256,0.196-0.555,0.418-0.896,0.663s-0.712,0.498-1.111,0.759s-0.802,0.501-1.207,0.719c-0.405,0.219-0.794,0.399-1.167,0.544
			c-0.373,0.144-0.698,0.215-0.976,0.215c-0.543,0-0.97-0.144-1.278-0.432c-0.31-0.287-0.515-0.668-0.616-1.143
			c-0.101-0.474-0.106-1.014-0.016-1.621s0.261-1.226,0.512-1.854c0.25-0.629,0.575-1.247,0.976-1.854
			c0.399-0.607,0.857-1.148,1.374-1.622c0.518-0.475,1.088-0.855,1.711-1.143c0.624-0.288,1.287-0.432,1.99-0.432
			c0.362,0,0.677,0.088,0.943,0.264s0.464,0.396,0.592,0.663s0.181,0.551,0.16,0.854c-0.021,0.304-0.134,0.578-0.336,0.823
			c-0.203,0.245-0.504,0.442-0.903,0.592c-0.399,0.148-0.914,0.202-1.543,0.159c-0.202-0.011-0.438,0.046-0.703,0.168
			c-0.267,0.122-0.49,0.267-0.672,0.432c-0.181,0.165-0.282,0.325-0.304,0.479s0.112,0.253,0.399,0.295
			c0.715,0.107,1.381,0.035,1.999-0.216c0.618-0.25,1.153-0.596,1.606-1.038s0.812-0.933,1.079-1.471
			c0.267-0.537,0.408-1.044,0.424-1.518s-0.109-0.873-0.376-1.198s-0.698-0.487-1.295-0.487c-0.853,0-1.668,0.178-2.446,0.535
			c-0.777,0.357-1.502,0.831-2.174,1.422c-0.672,0.592-1.279,1.263-1.822,2.014c-0.544,0.751-1.005,1.518-1.383,2.301
			c-0.379,0.783-0.661,1.55-0.848,2.302c-0.187,0.751-0.264,1.422-0.231,2.013c0.031,0.592,0.191,1.065,0.479,1.422
			c0.287,0.357,0.714,0.536,1.278,0.536c0.395,0,0.84-0.097,1.335-0.288c0.496-0.191,1.008-0.437,1.535-0.734
			c0.527-0.299,1.047-0.624,1.559-0.976s0.983-0.687,1.415-1.007c0.316-0.234,0.585-0.439,0.83-0.632
			c-0.114,0.226-0.203,0.45-0.247,0.672c-0.053,0.272-0.026,0.522,0.08,0.751c0.106,0.229,0.347,0.381,0.72,0.456
			c0.352,0.085,0.7,0.066,1.047-0.056c0.347-0.123,0.661-0.288,0.943-0.496c0.282-0.207,0.52-0.434,0.711-0.679
			c0.192-0.245,0.32-0.458,0.384-0.64c0.618,0.117,1.173,0.142,1.663,0.072c0.193-0.027,0.39-0.088,0.586-0.165
			c-0.172,0.229-0.324,0.454-0.435,0.668c-0.186,0.362-0.266,0.669-0.239,0.919s0.21,0.376,0.552,0.376
			c0.362,0,0.737-0.078,1.127-0.231c0.389-0.155,0.765-0.352,1.127-0.592s0.706-0.498,1.031-0.775
			c0.325-0.276,0.609-0.537,0.855-0.782c-0.106,0.532-0.097,0.969,0.031,1.31c0.128,0.342,0.427,0.512,0.896,0.512
			c0.373,0,0.76-0.074,1.159-0.224s0.786-0.333,1.159-0.552c0.339-0.197,0.643-0.401,0.93-0.609
			c-0.052,0.113-0.108,0.226-0.139,0.338c-0.09,0.336-0.034,0.637,0.168,0.903c0.267,0.352,0.655,0.562,1.167,0.631
			s1.093,0.019,1.743-0.151c0.649-0.171,1.334-0.458,2.054-0.863c0.72-0.404,1.415-0.905,2.087-1.502
			C90.169,60.338,90.238,60.218,90.163,60.17z M81.826,56.542c0.272-0.463,0.533-0.873,0.783-1.23
			c0.251-0.356,0.478-0.646,0.68-0.87c0.202-0.225,0.356-0.336,0.464-0.336c0.128,0,0.141,0.106,0.04,0.319
			c-0.102,0.213-0.28,0.498-0.536,0.855c-0.256,0.356-0.572,0.767-0.951,1.23c-0.378,0.463-0.791,0.945-1.238,1.445
			C81.302,57.478,81.555,57.006,81.826,56.542z M84.353,60.441c0.165-0.293,0.45-0.557,0.855-0.791
			c0.383-0.213,0.66-0.301,0.831-0.264c0.17,0.037,0.261,0.133,0.271,0.288c0.011,0.154-0.056,0.335-0.199,0.543
			c-0.145,0.208-0.334,0.365-0.568,0.472c-0.586,0.276-1.055,0.479-1.406,0.606C84.115,61.02,84.187,60.734,84.353,60.441z"/>
	</g>
</g>
<g id="Est._1977">
	<g>
		<path fill-rule="evenodd" clip-rule="evenodd" fill="#FFFFFF" d="M36.557,5.853c0.086,0.192,0.173,0.384,0.259,0.576
			c-0.162,0.073-0.323,0.146-0.484,0.222c-0.1-0.215-0.2-0.43-0.3-0.645c0.119-0.055,0.238-0.11,0.358-0.164
			c-0.063-0.138-0.126-0.276-0.188-0.415c-0.121,0.055-0.241,0.11-0.361,0.167c-0.089-0.191-0.177-0.382-0.266-0.573
			c0.167-0.078,0.335-0.155,0.503-0.23c0.076,0.167,0.151,0.335,0.227,0.503c0.308-0.139,0.617-0.274,0.927-0.405
			c-0.157-0.371-0.314-0.74-0.471-1.111c-0.973,0.413-1.936,0.859-2.886,1.34l0.296,0.584c0.083-0.042,0.165-0.083,0.247-0.124
			c0.268,0.536,0.535,1.072,0.803,1.608c-0.079,0.04-0.158,0.079-0.237,0.119c0.099,0.195,0.197,0.39,0.296,0.584
			c0.888-0.449,1.787-0.866,2.695-1.252c-0.167-0.395-0.335-0.79-0.502-1.184C37.166,5.583,36.861,5.716,36.557,5.853z
			 M42.334,3.589c-0.097-0.094-0.212-0.164-0.347-0.209s-0.284-0.073-0.447-0.081s-0.335-0.009-0.516-0.004
			c-0.097,0.003-0.17,0.002-0.221-0.003s-0.083-0.03-0.097-0.073c-0.018-0.053-0.009-0.097,0.025-0.132
			c0.034-0.035,0.099-0.068,0.193-0.099c0.066-0.021,0.126-0.025,0.181-0.014c0.054,0.012,0.093,0.055,0.116,0.129
			c0.3-0.095,0.602-0.187,0.903-0.276c-0.067-0.229-0.135-0.458-0.202-0.686c-0.17-0.03-0.375-0.034-0.614-0.009
			c-0.239,0.025-0.485,0.078-0.739,0.161c-0.28,0.091-0.508,0.191-0.684,0.298c-0.175,0.106-0.306,0.22-0.392,0.339
			c-0.085,0.12-0.133,0.245-0.143,0.374s0.011,0.264,0.062,0.404c0.054,0.148,0.125,0.264,0.212,0.35
			c0.088,0.086,0.197,0.149,0.327,0.191c0.13,0.042,0.283,0.067,0.459,0.079c0.177,0.011,0.38,0.017,0.609,0.02
			c0.109,0.003,0.184,0.014,0.225,0.03s0.067,0.042,0.078,0.077c0.017,0.051,0.009,0.095-0.021,0.133
			c-0.031,0.038-0.091,0.072-0.183,0.102c-0.105,0.035-0.18,0.04-0.225,0.014S40.815,4.626,40.79,4.55
			c-0.305,0.103-0.609,0.209-0.912,0.318c0.09,0.248,0.18,0.496,0.269,0.744C40.305,5.618,40.506,5.6,40.75,5.56
			s0.49-0.1,0.74-0.182c0.439-0.144,0.75-0.327,0.932-0.558c0.182-0.231,0.226-0.513,0.129-0.845
			C42.503,3.812,42.431,3.683,42.334,3.589z M47.047,1.722c0.251-0.045,0.504-0.088,0.756-0.129
			c-0.052-0.319-0.104-0.639-0.156-0.958c-1.126,0.182-2.248,0.406-3.362,0.67c0.075,0.315,0.15,0.63,0.225,0.945
			c0.25-0.06,0.5-0.116,0.75-0.171c-0.023-0.103-0.045-0.206-0.068-0.308l0.281-0.062c0.125,0.586,0.25,1.172,0.376,1.758
			c-0.099,0.021-0.198,0.042-0.296,0.064c0.047,0.213,0.094,0.427,0.141,0.64c0.583-0.128,1.167-0.245,1.754-0.35
			c-0.038-0.215-0.077-0.43-0.115-0.645c-0.099,0.018-0.198,0.036-0.297,0.054l-0.328-1.768c0.094-0.017,0.188-0.035,0.283-0.051
			L47.047,1.722z M50.356,2.743c0.023,0.217,0.047,0.435,0.071,0.651c0.22-0.024,0.439-0.046,0.659-0.066
			c-0.02-0.218-0.041-0.435-0.061-0.652C50.801,2.697,50.579,2.719,50.356,2.743z M58.854,0.169
			c-0.292-0.022-0.583-0.042-0.875-0.06c-0.339,0.048-0.677,0.1-1.014,0.155l-0.018,0.451c0.188,0.007,0.376,0.015,0.563,0.024
			c-0.029,0.599-0.06,1.197-0.089,1.795c-0.138-0.006-0.275-0.013-0.413-0.019l-0.026,0.655c0.662,0.027,1.324,0.068,1.985,0.125
			c0.019-0.217,0.037-0.435,0.056-0.653c-0.12-0.01-0.24-0.02-0.36-0.029C58.727,1.799,58.79,0.984,58.854,0.169z M64.134,1.169
			c-0.111-0.139-0.261-0.253-0.446-0.344s-0.403-0.158-0.651-0.2c-0.456-0.076-0.82-0.043-1.089,0.093
			c-0.269,0.136-0.427,0.394-0.478,0.768c-0.025,0.179-0.016,0.33,0.026,0.453c0.042,0.123,0.106,0.225,0.192,0.306
			c0.085,0.081,0.188,0.144,0.306,0.188s0.242,0.078,0.371,0.098c0.139,0.022,0.261,0.03,0.368,0.024s0.202-0.015,0.284-0.028
			c-0.005,0.027-0.01,0.055-0.015,0.083c-0.03,0.173-0.097,0.298-0.199,0.376C62.7,3.065,62.562,3.089,62.39,3.062
			c-0.195-0.032-0.369-0.072-0.521-0.122s-0.28-0.099-0.387-0.149c-0.029,0.212-0.06,0.425-0.09,0.637
			c0.112,0.062,0.248,0.126,0.408,0.195c0.16,0.068,0.358,0.122,0.597,0.161c0.245,0.041,0.471,0.047,0.678,0.02
			s0.393-0.098,0.558-0.212s0.307-0.279,0.426-0.493c0.118-0.214,0.212-0.486,0.279-0.818c0.047-0.232,0.053-0.441,0.017-0.626
			C64.319,1.469,64.245,1.307,64.134,1.169z M63.115,1.968c-0.04,0.006-0.085,0.011-0.135,0.013s-0.103-0.001-0.157-0.011
			c-0.207-0.035-0.294-0.155-0.26-0.362c0.021-0.126,0.059-0.209,0.117-0.249c0.058-0.039,0.137-0.05,0.237-0.033
			c0.101,0.017,0.172,0.053,0.214,0.107c0.042,0.055,0.054,0.133,0.036,0.235C63.15,1.769,63.133,1.869,63.115,1.968z M66.659,2.617
			c0.303,0.078,0.604,0.158,0.906,0.242c0.033-0.118,0.065-0.236,0.099-0.354c0.216,0.06,0.431,0.122,0.646,0.185
			c-0.16,0.108-0.329,0.237-0.507,0.386c-0.177,0.149-0.342,0.305-0.497,0.468c-0.154,0.163-0.292,0.337-0.412,0.521
			s-0.206,0.377-0.26,0.578c0.389,0.104,0.777,0.214,1.164,0.33c0.039-0.13,0.093-0.261,0.162-0.392s0.147-0.258,0.235-0.382
			c0.087-0.124,0.187-0.248,0.299-0.371c0.111-0.124,0.243-0.26,0.396-0.409c0.152-0.149,0.362-0.327,0.631-0.531
			c0.062-0.193,0.125-0.385,0.187-0.578c-0.914-0.295-1.836-0.562-2.763-0.8C66.85,1.879,66.754,2.248,66.659,2.617z M71.887,3.073
			c-0.135,0.356-0.27,0.712-0.403,1.069c0.294,0.111,0.588,0.226,0.881,0.343c0.046-0.114,0.091-0.228,0.137-0.341
			c0.21,0.084,0.419,0.17,0.627,0.257c-0.172,0.09-0.355,0.198-0.549,0.327c-0.193,0.128-0.376,0.265-0.549,0.41
			c-0.172,0.145-0.328,0.302-0.469,0.472s-0.247,0.351-0.323,0.545c0.379,0.148,0.757,0.301,1.132,0.459
			c0.053-0.125,0.121-0.249,0.205-0.371c0.083-0.123,0.175-0.24,0.276-0.354c0.101-0.113,0.214-0.225,0.339-0.335
			s0.271-0.23,0.44-0.362c0.169-0.131,0.398-0.284,0.69-0.456c0.083-0.185,0.166-0.37,0.249-0.554
			C73.685,3.784,72.79,3.414,71.887,3.073z"/>
	</g>
</g>
<g id="Castle_Rock_x2C__CO">
	<g>
		<path fill-rule="evenodd" clip-rule="evenodd" fill="#FFFFFF" d="M28.105,69.188c-0.09-0.057-0.195-0.111-0.312-0.167
			c-0.118-0.055-0.255-0.105-0.413-0.153c-0.228-0.07-0.443-0.106-0.646-0.108c-0.204-0.002-0.389,0.036-0.558,0.117
			c-0.168,0.08-0.32,0.206-0.454,0.379c-0.134,0.172-0.246,0.396-0.336,0.672c-0.09,0.278-0.131,0.526-0.121,0.744
			c0.009,0.217,0.062,0.408,0.158,0.572c0.096,0.165,0.23,0.306,0.405,0.422c0.174,0.115,0.381,0.211,0.619,0.283
			c0.16,0.049,0.307,0.084,0.441,0.104c0.134,0.021,0.256,0.033,0.366,0.036c0.109,0.003,0.208-0.001,0.295-0.013
			s0.163-0.025,0.226-0.04c0.097-0.331,0.193-0.662,0.289-0.994c-0.321-0.093-0.643-0.188-0.963-0.285
			c-0.031,0.104-0.062,0.206-0.094,0.31c-0.03,0.1-0.075,0.164-0.134,0.195c-0.059,0.03-0.134,0.032-0.226,0.004
			c-0.091-0.027-0.153-0.071-0.185-0.13c-0.032-0.059-0.032-0.138-0.001-0.236c0.119-0.385,0.237-0.769,0.356-1.152
			c0.031-0.1,0.076-0.165,0.134-0.195c0.059-0.031,0.132-0.032,0.222-0.005s0.15,0.07,0.182,0.128
			c0.031,0.059,0.032,0.137,0.002,0.236c-0.028,0.092-0.055,0.184-0.083,0.275c0.319,0.097,0.638,0.191,0.958,0.284
			c0.093-0.319,0.186-0.64,0.279-0.959c-0.049-0.047-0.106-0.1-0.171-0.156C28.274,69.301,28.196,69.244,28.105,69.188z
			 M32.224,70.265c-0.482-0.12-0.964-0.243-1.445-0.37c-0.433,0.731-0.871,1.46-1.315,2.187c-0.054-0.015-0.108-0.03-0.163-0.045
			c-0.058,0.211-0.116,0.422-0.173,0.632c0.466,0.128,0.933,0.253,1.4,0.373c0.055-0.211,0.109-0.423,0.164-0.634
			c-0.082-0.021-0.163-0.043-0.244-0.063c0.048-0.097,0.097-0.192,0.145-0.289c0.183,0.048,0.365,0.095,0.548,0.142
			c-0.003,0.107-0.005,0.216-0.008,0.323c-0.082-0.021-0.163-0.041-0.245-0.062c-0.054,0.212-0.108,0.423-0.163,0.635
			c0.536,0.138,1.073,0.271,1.61,0.398c0.05-0.213,0.101-0.426,0.152-0.638c-0.055-0.013-0.109-0.026-0.164-0.039
			C32.284,71.963,32.251,71.113,32.224,70.265z M31.16,71.764c-0.124-0.031-0.248-0.063-0.372-0.096
			c0.122-0.243,0.244-0.486,0.365-0.73c0.013,0.004,0.026,0.007,0.04,0.011C31.182,71.22,31.17,71.492,31.16,71.764z M35.737,71.006
			c-0.256-0.053-0.476-0.077-0.659-0.071c-0.184,0.005-0.337,0.037-0.461,0.096c-0.124,0.06-0.222,0.142-0.294,0.246
			c-0.073,0.105-0.125,0.23-0.158,0.376c-0.034,0.153-0.039,0.29-0.015,0.408c0.024,0.119,0.077,0.229,0.159,0.332
			c0.081,0.103,0.189,0.203,0.326,0.302c0.136,0.099,0.297,0.206,0.484,0.321c0.087,0.057,0.145,0.102,0.17,0.136
			c0.026,0.034,0.035,0.069,0.027,0.105c-0.011,0.053-0.038,0.088-0.082,0.105c-0.044,0.019-0.111,0.018-0.201-0.001
			c-0.104-0.021-0.168-0.056-0.193-0.1c-0.025-0.045-0.029-0.106-0.012-0.185c-0.3-0.063-0.6-0.129-0.899-0.195
			c-0.057,0.257-0.115,0.515-0.172,0.771c0.127,0.089,0.303,0.179,0.528,0.271c0.225,0.092,0.464,0.165,0.718,0.218
			c0.447,0.093,0.804,0.078,1.067-0.042c0.265-0.121,0.429-0.352,0.494-0.691c0.033-0.168,0.029-0.314-0.01-0.441
			c-0.039-0.127-0.103-0.241-0.193-0.343c-0.09-0.103-0.199-0.194-0.327-0.277s-0.266-0.165-0.412-0.247
			c-0.078-0.043-0.136-0.08-0.173-0.109c-0.038-0.029-0.052-0.066-0.042-0.11c0.012-0.056,0.039-0.09,0.083-0.104
			c0.044-0.014,0.11-0.012,0.199,0.006c0.062,0.014,0.111,0.038,0.149,0.074s0.048,0.092,0.033,0.168
			c0.283,0.058,0.566,0.113,0.85,0.169c0.046-0.234,0.091-0.469,0.137-0.702c-0.122-0.103-0.281-0.197-0.478-0.284
			C36.183,71.122,35.969,71.055,35.737,71.006z M38.118,72.511c0.232,0.042,0.465,0.083,0.698,0.122
			c0.018-0.104,0.036-0.207,0.053-0.311l0.259,0.044c-0.099,0.591-0.199,1.182-0.298,1.772c-0.096-0.016-0.192-0.032-0.289-0.049
			c-0.037,0.216-0.074,0.431-0.111,0.646c0.582,0.1,1.164,0.194,1.747,0.283c0.033-0.216,0.066-0.432,0.099-0.647
			c-0.097-0.015-0.193-0.03-0.29-0.045c0.092-0.592,0.185-1.185,0.276-1.776c0.087,0.014,0.173,0.027,0.26,0.04
			c-0.016,0.104-0.032,0.208-0.047,0.312c0.233,0.036,0.467,0.071,0.701,0.104c0.046-0.32,0.093-0.64,0.139-0.961
			c-1.011-0.146-2.021-0.31-3.028-0.489C38.231,71.874,38.174,72.192,38.118,72.511z M44.106,74.876
			c-0.125-0.014-0.249-0.027-0.374-0.042c0.069-0.596,0.138-1.19,0.207-1.786c0.125,0.015,0.25,0.028,0.375,0.043
			c0.024-0.218,0.048-0.435,0.073-0.651c-0.583-0.065-1.165-0.136-1.747-0.212l-0.085,0.65c0.082,0.011,0.163,0.021,0.244,0.031
			c-0.076,0.595-0.152,1.188-0.228,1.783l-0.249-0.032c-0.028,0.217-0.057,0.433-0.085,0.649c0.875,0.114,1.751,0.217,2.629,0.307
			c0.035-0.339,0.07-0.678,0.104-1.017c-0.274-0.028-0.549-0.058-0.823-0.089C44.134,74.633,44.12,74.755,44.106,74.876z
			 M46.513,73.31c0.082,0.008,0.163,0.015,0.245,0.021c-0.051,0.597-0.102,1.194-0.153,1.791c-0.083-0.007-0.167-0.014-0.25-0.021
			c-0.02,0.218-0.039,0.436-0.058,0.652c0.957,0.084,1.914,0.154,2.872,0.21c0.025-0.428,0.05-0.856,0.075-1.284
			c-0.309-0.018-0.618-0.037-0.927-0.059c-0.015,0.21-0.029,0.42-0.043,0.63l-0.504-0.035c0.017-0.236,0.035-0.473,0.052-0.709
			c0.122,0.009,0.243,0.018,0.364,0.025c0.011-0.151,0.021-0.303,0.032-0.454c-0.121-0.009-0.241-0.017-0.362-0.026
			c0.016-0.209,0.031-0.419,0.046-0.629c0.165,0.012,0.33,0.023,0.494,0.035c-0.012,0.183-0.024,0.366-0.037,0.55
			c0.307,0.021,0.614,0.04,0.921,0.058c0.023-0.401,0.046-0.803,0.07-1.204c-0.927-0.054-1.854-0.122-2.78-0.203
			C46.551,72.875,46.532,73.093,46.513,73.31z M56.202,75.461c-0.001-0.103-0.003-0.205-0.004-0.308
			c-0.005-0.274-0.14-0.429-0.404-0.466c-0.002-0.014-0.003-0.027-0.005-0.04c0.14-0.055,0.246-0.148,0.316-0.279
			c0.071-0.132,0.105-0.285,0.103-0.461c-0.002-0.165-0.029-0.305-0.081-0.419c-0.053-0.113-0.125-0.205-0.218-0.274
			c-0.094-0.069-0.207-0.12-0.342-0.15c-0.135-0.031-0.284-0.046-0.45-0.046c-0.635,0.003-1.271-0.002-1.907-0.013
			c-0.003,0.219-0.007,0.437-0.011,0.655c0.082,0.001,0.164,0.003,0.246,0.004c-0.009,0.599-0.018,1.198-0.026,1.797l-0.25-0.003
			c-0.004,0.218-0.007,0.437-0.011,0.654c0.569,0.01,1.137,0.015,1.706,0.015v-0.655h-0.276c0-0.219,0.001-0.438,0.001-0.655
			c0.086,0,0.159,0.005,0.22,0.014c0.061,0.01,0.111,0.026,0.151,0.052s0.069,0.062,0.088,0.111c0.018,0.05,0.027,0.114,0.027,0.194
			c0.001,0.312,0.002,0.626,0.003,0.938c0.443-0.001,0.888-0.006,1.331-0.013c-0.004-0.219-0.007-0.437-0.011-0.655L56.202,75.461z
			 M55.051,74.072c0.001,0.091-0.02,0.156-0.059,0.196c-0.04,0.04-0.1,0.061-0.18,0.061H54.59c0-0.219,0.001-0.438,0.002-0.655
			h0.221c0.079,0,0.139,0.02,0.179,0.06c0.039,0.04,0.06,0.105,0.06,0.195V74.072z M60.315,73.169
			c-0.142-0.12-0.311-0.204-0.506-0.252s-0.41-0.066-0.646-0.056c-0.236,0.011-0.448,0.049-0.639,0.115s-0.35,0.165-0.48,0.298
			c-0.13,0.132-0.229,0.302-0.296,0.509c-0.067,0.208-0.098,0.456-0.089,0.746c0.009,0.293,0.054,0.54,0.135,0.741
			c0.081,0.202,0.193,0.364,0.336,0.487s0.314,0.21,0.516,0.261s0.424,0.07,0.667,0.059c0.243-0.011,0.463-0.052,0.659-0.12
			c0.195-0.069,0.358-0.172,0.488-0.308c0.131-0.136,0.228-0.308,0.289-0.516c0.062-0.208,0.084-0.458,0.065-0.751
			c-0.018-0.29-0.07-0.534-0.157-0.734C60.572,73.448,60.458,73.288,60.315,73.169z M59.489,75.287
			c-0.045,0.049-0.114,0.075-0.209,0.08s-0.166-0.016-0.216-0.061c-0.049-0.044-0.076-0.118-0.08-0.222
			c-0.018-0.402-0.035-0.804-0.053-1.206c-0.005-0.104,0.015-0.18,0.06-0.229c0.044-0.048,0.112-0.074,0.205-0.079
			c0.093-0.004,0.164,0.016,0.213,0.061c0.048,0.044,0.075,0.118,0.08,0.222c0.021,0.401,0.04,0.803,0.06,1.205
			C59.555,75.162,59.534,75.238,59.489,75.287z M64.067,74.402c0.01,0.107,0.021,0.215,0.031,0.322
			c0.01,0.104-0.006,0.181-0.049,0.231s-0.111,0.081-0.205,0.09c-0.095,0.009-0.168-0.008-0.219-0.05
			c-0.052-0.042-0.082-0.115-0.091-0.218c-0.037-0.401-0.073-0.802-0.11-1.202c-0.01-0.104,0.007-0.18,0.049-0.23
			s0.109-0.081,0.202-0.089c0.092-0.01,0.164,0.007,0.215,0.049s0.081,0.115,0.091,0.219c0.01,0.095,0.019,0.19,0.028,0.286
			c0.328-0.032,0.656-0.066,0.984-0.102c-0.035-0.331-0.071-0.662-0.106-0.992c-0.063-0.025-0.136-0.052-0.216-0.08
			c-0.081-0.027-0.174-0.05-0.277-0.067c-0.104-0.018-0.221-0.029-0.35-0.035s-0.274-0.001-0.437,0.015
			c-0.234,0.021-0.445,0.07-0.632,0.146c-0.188,0.075-0.343,0.182-0.466,0.319c-0.124,0.139-0.215,0.313-0.272,0.523
			s-0.075,0.46-0.053,0.749c0.022,0.292,0.079,0.537,0.17,0.734s0.211,0.354,0.36,0.47c0.15,0.116,0.326,0.195,0.53,0.236
			c0.203,0.041,0.428,0.05,0.674,0.026c0.164-0.016,0.312-0.039,0.443-0.07c0.13-0.032,0.246-0.067,0.349-0.105
			c0.102-0.039,0.189-0.08,0.266-0.124c0.075-0.045,0.14-0.086,0.191-0.123c-0.037-0.343-0.074-0.686-0.11-1.029
			C64.728,74.337,64.397,74.371,64.067,74.402z M69.733,74.308c-0.288-0.289-0.574-0.58-0.857-0.871
			c0.175-0.298,0.347-0.597,0.518-0.896c0.055-0.009,0.108-0.017,0.162-0.025c-0.033-0.216-0.067-0.432-0.102-0.647
			c-0.347,0.055-0.693,0.107-1.04,0.158c-0.194,0.391-0.392,0.78-0.591,1.17c-0.05-0.354-0.099-0.71-0.147-1.064
			c-0.458,0.063-0.916,0.123-1.374,0.18c0.026,0.217,0.054,0.434,0.08,0.65c0.082-0.01,0.163-0.021,0.244-0.03
			c0.075,0.595,0.15,1.188,0.226,1.783c-0.083,0.011-0.166,0.021-0.249,0.031c0.026,0.217,0.054,0.434,0.08,0.65
			c0.474-0.059,0.946-0.12,1.419-0.187l-0.149-1.084c0.267,0.332,0.536,0.662,0.809,0.991c0.414-0.061,0.827-0.123,1.241-0.188
			c-0.034-0.216-0.068-0.432-0.104-0.647C69.844,74.29,69.789,74.299,69.733,74.308z M71.356,74.038
			c0.037,0.216,0.075,0.431,0.112,0.646c0.071-0.012,0.142-0.024,0.212-0.037c-0.034,0.224-0.069,0.448-0.105,0.672
			c0.12-0.021,0.24-0.042,0.36-0.063c0.061-0.229,0.121-0.457,0.182-0.687L72,73.924C71.785,73.963,71.571,74.001,71.356,74.038z
			 M77.66,72.083c0.026,0.104,0.052,0.21,0.077,0.314c0.025,0.101,0.02,0.18-0.015,0.236c-0.035,0.057-0.1,0.096-0.192,0.118
			c-0.092,0.022-0.167,0.017-0.225-0.018c-0.057-0.034-0.098-0.102-0.122-0.203c-0.094-0.391-0.188-0.781-0.281-1.173
			c-0.024-0.101-0.019-0.18,0.016-0.235c0.035-0.057,0.098-0.096,0.188-0.118c0.091-0.021,0.164-0.016,0.221,0.019
			s0.098,0.102,0.122,0.202c0.023,0.093,0.046,0.187,0.068,0.279c0.323-0.079,0.645-0.16,0.967-0.243l-0.249-0.967
			c-0.066-0.016-0.142-0.031-0.227-0.047c-0.084-0.016-0.18-0.025-0.285-0.027c-0.106-0.002-0.225,0.004-0.354,0.017
			s-0.272,0.038-0.432,0.077c-0.23,0.056-0.434,0.135-0.608,0.235c-0.176,0.102-0.314,0.229-0.418,0.385s-0.169,0.341-0.195,0.557
			c-0.027,0.217-0.01,0.466,0.055,0.75c0.063,0.285,0.155,0.52,0.273,0.701c0.119,0.183,0.261,0.32,0.427,0.413
			c0.165,0.093,0.353,0.146,0.561,0.156c0.208,0.012,0.434-0.012,0.675-0.07c0.161-0.039,0.306-0.084,0.431-0.135
			c0.126-0.05,0.236-0.102,0.332-0.155c0.096-0.053,0.179-0.106,0.247-0.161c0.069-0.055,0.127-0.104,0.174-0.149l-0.258-1.002
			C78.309,71.922,77.984,72.004,77.66,72.083z M83.035,70.302c-0.087-0.277-0.195-0.503-0.327-0.677s-0.281-0.302-0.449-0.385
			c-0.167-0.083-0.353-0.124-0.556-0.124c-0.203-0.001-0.419,0.032-0.647,0.099c-0.229,0.067-0.428,0.154-0.599,0.264
			c-0.171,0.11-0.305,0.244-0.401,0.404c-0.097,0.159-0.154,0.348-0.172,0.564c-0.017,0.218,0.013,0.467,0.089,0.747
			c0.077,0.282,0.18,0.512,0.306,0.688c0.127,0.176,0.275,0.308,0.443,0.394c0.169,0.085,0.358,0.13,0.567,0.131
			c0.209,0.002,0.432-0.032,0.668-0.101c0.236-0.069,0.443-0.161,0.618-0.274c0.176-0.113,0.312-0.252,0.408-0.415
			c0.097-0.163,0.151-0.354,0.163-0.57C83.159,70.83,83.121,70.581,83.035,70.302z M81.945,71.496
			c-0.033,0.059-0.096,0.101-0.187,0.128c-0.093,0.026-0.168,0.024-0.227-0.008c-0.059-0.031-0.103-0.097-0.131-0.197
			c-0.111-0.386-0.223-0.772-0.335-1.159c-0.028-0.1-0.026-0.178,0.006-0.236c0.031-0.058,0.093-0.1,0.183-0.126
			c0.09-0.025,0.164-0.023,0.223,0.009c0.058,0.031,0.102,0.097,0.131,0.196c0.114,0.386,0.228,0.771,0.341,1.157
			C81.979,71.359,81.978,71.438,81.945,71.496z"/>
	</g>
</g>
</svg>
